# xmcd CD database file
#
# Track frame offsets:
#	150
#	19177
#	38722
#	74147
#	101350
#	122500
#	147097
#	176965
#	204655
#
# Disc length: 3025 seconds
#
# Revision: 0
# Processed by: cddbd v1.5.2PL0 Copyright (c) Steve Scherf et al.
# Submitted via: CDex 1.70beta2
#
DISCID=810bcf09
DTITLE=George Young  (Tenor Sax) - Burgundy
DYEAR=1987
DGENRE=Jazz
TTITLE0=St Thomas
TTITLE1=Omelette
TTITLE2=Burgundy
TTITLE3=I Remember Clifford
TTITLE4=Groovin' High
TTITLE5=My Foolish Heart
TTITLE6=Yum Yum
TTITLE7=October
TTITLE8=B_Loose Blues
EXTD=YEAR: 1987
EXTT0=
EXTT1=
EXTT2=
EXTT3=
EXTT4=
EXTT5=
EXTT6=
EXTT7=
EXTT8=
PLAYORDER=
